<?xml version="1.0" encoding="UTF-8" standalone="no"?>
<!-- Generator: Adobe Illustrator 22.1.0, SVG Export Plug-In . SVG Version: 6.00 Build 0)  -->

<svg
   xmlns:dc="http://purl.org/dc/elements/1.1/"
   xmlns:cc="http://creativecommons.org/ns#"
   xmlns:rdf="http://www.w3.org/1999/02/22-rdf-syntax-ns#"
   xmlns:svg="http://www.w3.org/2000/svg"
   xmlns="http://www.w3.org/2000/svg"
   xmlns:sodipodi="http://sodipodi.sourceforge.net/DTD/sodipodi-0.dtd"
   xmlns:inkscape="http://www.inkscape.org/namespaces/inkscape"
   version="1.1"
   id="Layer_1"
   x="0px"
   y="0px"
   viewBox="0 0 76.521744 31.999999"
   xml:space="preserve"
   sodipodi:docname="1-day.svg"
   width="76.521744"
   height="32"
   inkscape:version="0.92.3 (2405546, 2018-03-11)"><metadata
   id="metadata11"><rdf:RDF><cc:Work
       rdf:about=""><dc:format>image/svg+xml</dc:format><dc:type
         rdf:resource="http://purl.org/dc/dcmitype/StillImage" /><dc:title></dc:title></cc:Work></rdf:RDF></metadata><defs
   id="defs9" /><sodipodi:namedview
   pagecolor="#ffffff"
   bordercolor="#666666"
   borderopacity="1"
   objecttolerance="10"
   gridtolerance="10"
   guidetolerance="10"
   inkscape:pageopacity="0"
   inkscape:pageshadow="2"
   inkscape:window-width="1920"
   inkscape:window-height="1017"
   id="namedview7"
   showgrid="false"
   fit-margin-top="0"
   fit-margin-left="0"
   fit-margin-right="0"
   fit-margin-bottom="0"
   inkscape:zoom="1.3427896"
   inkscape:cx="-21.966725"
   inkscape:cy="40.349999"
   inkscape:window-x="-8"
   inkscape:window-y="-8"
   inkscape:window-maximized="1"
   inkscape:current-layer="Layer_1" />
<style
   type="text/css"
   id="style2">
	.st0{fill:#FFFFFF;}
</style>
<path
   class="st0"
   d="m 12.792271,23.613527 2.009661,-10.705314 h -4.367149 l 0.541062,-2.666667 c 0.618358,0 1.198068,-0.03865 1.816426,-0.154589 0.618357,-0.1159425 1.120772,-0.3091792 1.661835,-0.5797106 0.502416,-0.2705314 0.927537,-0.6570049 1.352657,-1.0821256 0.425121,-0.4637681 0.7343,-1.0048309 0.927537,-1.6618358 h 2.782608 l -3.246377,16.811594 -3.47826,0.03865 c 0,-0.03865 0,0 0,0 z m 17.584541,-9.429952 -0.579711,3.014493 h -6.299516 l 0.57971,-3.014493 z M 17.004831,0 h 3.014493 L 19.05314,5.2173913 H 16.038647 Z M 0,17.816425 0.5797101,14.801932 H 6.338164 l -0.57971,3.014493 z M 14.492754,32 h -3.014493 l 1.004831,-5.217391 h 3.014493 z M 30.222222,7.4202899 30.724638,8.6570048 26.898551,10.666667 26.396135,9.4299517 c 0.03865,0 3.826087,-2.0096618 3.826087,-2.0096618 z M 25.236715,2.1642512 26.357488,2.8985507 23.729469,6.2995169 22.608696,5.5652174 Z M 9.73913,3.1304348 11.130435,2.3961353 12.444444,5.8357488 11.05314,6.6086957 c 0,0 -1.31401,-3.4782609 -1.31401,-3.4782609 z M 3.323671,9.1207729 4.289855,7.884058 7.342995,9.8937198 6.376812,11.130435 c 0,0 -3.053141,-2.0096621 -3.053141,-2.0096621 z M 1.352657,24.463768 0.8502415,23.188406 4.676329,21.217391 5.178744,22.454106 c 0.03865,0 -3.826087,2.009662 -3.826087,2.009662 z m 4.985507,5.256039 -1.120773,-0.7343 2.62802,-3.439613 1.120773,0.734299 z m 15.536232,-0.966184 -1.391304,0.7343 -1.31401,-3.439614 1.391304,-0.734299 z M 28.251208,22.763285 27.285024,24 24.231884,22.028985 25.198068,20.79227 Z m 14.10628,-0.772947 c -0.57971,0.695652 -1.198068,1.198068 -1.932367,1.507247 -0.7343,0.309178 -1.507247,0.463768 -2.357488,0.463768 -0.966184,0 -1.777778,-0.193237 -2.396135,-0.579711 -0.657005,-0.386473 -1.159421,-0.850241 -1.507247,-1.507246 -0.347826,-0.657005 -0.57971,-1.352657 -0.657005,-2.202898 -0.07729,-0.811595 -0.03865,-1.700484 0.15459,-2.589372 0.154589,-0.850242 0.463768,-1.700483 0.811594,-2.47343 0.386473,-0.772947 0.888889,-1.507247 1.468599,-2.125604 0.618357,-0.618358 1.275362,-1.082126 2.086957,-1.468599 0.811594,-0.386474 1.661835,-0.57971 2.589371,-0.57971 0.772947,0 1.4686,0.154589 2.086957,0.502415 0.657005,0.347826 1.082126,0.772947 1.352657,1.429952 h 0.07729 L 45.140092,7.0338164 H 48.657 L 45.487923,23.613527 h -3.362319 l 0.309179,-1.623189 c 0,0.03865 -0.07729,0 -0.07729,0 z m 1.082126,-6.376811 c 0,-0.502416 -0.07729,-0.888889 -0.270532,-1.275363 -0.193237,-0.386473 -0.425121,-0.695652 -0.772947,-0.888889 -0.347826,-0.231884 -0.772947,-0.347826 -1.391304,-0.347826 -0.57971,0 -1.082126,0.115942 -1.545894,0.347826 -0.463768,0.231884 -0.811594,0.541063 -1.120773,0.888889 -0.309178,0.347826 -0.57971,0.811595 -0.772947,1.31401 -0.193236,0.502415 -0.347826,0.966184 -0.463768,1.545894 -0.115942,0.502415 -0.154589,0.966183 -0.115942,1.507246 0.03865,0.502415 0.115942,0.927536 0.309179,1.31401 0.193237,0.386473 0.463768,0.734299 0.772947,0.927536 0.347826,0.231884 0.772947,0.386473 1.352657,0.386473 0.57971,0 1.082125,-0.115942 1.507246,-0.347826 0.463768,-0.231884 0.772947,-0.541063 1.120773,-0.927536 0.309179,-0.386473 0.57971,-0.811594 0.772947,-1.31401 0.193237,-0.502415 0.347826,-1.004831 0.463768,-1.545893 0.115942,-0.57971 0.15459,-1.120773 0.15459,-1.584541 z m 7.227053,-2.898551 c 0.463768,-0.57971 1.004831,-0.966184 1.661835,-1.31401 0.657005,-0.347826 1.31401,-0.57971 2.04831,-0.734299 0.734299,-0.15459 1.468599,-0.231884 2.202898,-0.231884 0.657005,0 1.275362,0.03865 1.971015,0.154589 0.657004,0.0773 1.198067,0.270531 1.700483,0.541063 0.502415,0.270531 0.850241,0.657005 1.120773,1.082125 0.270531,0.463769 0.309178,1.082126 0.154589,1.89372 l -1.275362,6.68599 c -0.115942,0.579711 -0.193237,1.120773 -0.231884,1.661836 -0.03865,0.541063 0,0.927536 0.115942,1.198068 h -3.594203 c -0.03865,-0.193237 -0.03865,-0.425121 -0.03865,-0.618358 0,-0.231884 0,-0.42512 0.03865,-0.657004 -0.695652,0.57971 -1.429952,0.966183 -2.241546,1.198067 -0.772947,0.231884 -1.623188,0.347826 -2.396135,0.347826 -0.618358,0 -1.159421,-0.07729 -1.661836,-0.231884 -0.502416,-0.154589 -0.927536,-0.386473 -1.236715,-0.695652 -0.347826,-0.309179 -0.57971,-0.734299 -0.7343,-1.198068 -0.154589,-0.502415 -0.154589,-1.043478 0,-1.700483 0.15459,-0.734299 0.386474,-1.314009 0.7343,-1.816425 0.347826,-0.463768 0.772947,-0.811594 1.198068,-1.120773 0.463768,-0.270531 0.966183,-0.502415 1.507246,-0.657004 0.57971,-0.15459 1.082126,-0.270532 1.661836,-0.347827 0.57971,-0.0773 1.082125,-0.154589 1.623188,-0.193236 0.541063,-0.03865 0.966184,-0.115942 1.391304,-0.231884 0.425121,-0.115942 0.772947,-0.231884 1.004831,-0.463768 0.270532,-0.193237 0.425121,-0.463769 0.502416,-0.811595 0.07729,-0.347826 0.07729,-0.695652 0,-0.888889 -0.0773,-0.231884 -0.231884,-0.42512 -0.425121,-0.541062 -0.193237,-0.115942 -0.425121,-0.231884 -0.695652,-0.270532 -0.270532,-0.03865 -0.57971,-0.07729 -0.850242,-0.07729 -0.734299,0 -1.275362,0.15459 -1.73913,0.463768 -0.463768,0.309179 -0.772947,0.772948 -0.966184,1.507247 h -3.516908 c 0.154589,-0.734299 0.502416,-1.429952 0.966184,-1.932367 z m 6.067633,4.869565 c -0.231885,0.0773 -0.502416,0.154589 -0.772947,0.193237 -0.270532,0.03865 -0.57971,0.07729 -0.811595,0.115942 -0.309178,0.03865 -0.57971,0.07729 -0.850241,0.115942 -0.270531,0.03865 -0.57971,0.115942 -0.811594,0.193237 -0.231884,0.07729 -0.541063,0.193236 -0.772947,0.347826 -0.231884,0.154589 -0.425121,0.309178 -0.57971,0.541062 -0.15459,0.231884 -0.270532,0.502416 -0.347826,0.811595 -0.07729,0.309178 -0.03865,0.57971 0.03865,0.772946 0.0773,0.231885 0.193237,0.386474 0.386473,0.541063 0.193237,0.115942 0.386474,0.231884 0.657005,0.270532 0.270532,0.03865 0.541063,0.07729 0.811594,0.07729 0.7343,0 1.275363,-0.115942 1.700484,-0.347826 0.42512,-0.231884 0.772946,-0.502415 1.00483,-0.811594 0.231884,-0.309179 0.425121,-0.657005 0.541063,-0.966184 0.115942,-0.347826 0.193237,-0.618357 0.231884,-0.772946 l 0.270532,-1.31401 c -0.270532,0.115942 -0.463768,0.154589 -0.695652,0.231884 z m 9.623188,9.816425 c -0.772947,0.463768 -1.739131,0.695652 -2.937198,0.695652 -0.386474,0 -0.7343,0 -1.043478,-0.03865 -0.347826,-0.03865 -0.7343,-0.03865 -1.043479,-0.0773 l 0.57971,-2.89855 c 0.347827,0.03865 0.657005,0.07729 1.004831,0.115942 0.347826,0.03865 0.695653,0.03865 1.004831,0.03865 0.502416,-0.03865 0.850242,-0.231884 1.120773,-0.541063 0.309179,-0.309179 0.463768,-0.695652 0.541063,-1.043478 0.03865,-0.270532 0.03865,-0.541063 0,-0.772947 L 63.381643,10.821256 h 3.748792 l 1.198067,8.772947 h 0.03865 l 4.483092,-8.772947 h 3.671497 L 68.36715,25.275362 c -0.541063,0.966184 -1.198068,1.661836 -2.009662,2.125604 z"
   id="path4"
   style="fill:#979797;fill-opacity:1;stroke-width:0.38647342"
   inkscape:connector-curvature="0" />
</svg>