<?xml version="1.0" encoding="UTF-8" standalone="no"?>
<svg
   xmlns:dc="http://purl.org/dc/elements/1.1/"
   xmlns:cc="http://creativecommons.org/ns#"
   xmlns:rdf="http://www.w3.org/1999/02/22-rdf-syntax-ns#"
   xmlns:svg="http://www.w3.org/2000/svg"
   xmlns="http://www.w3.org/2000/svg"
   xmlns:sodipodi="http://sodipodi.sourceforge.net/DTD/sodipodi-0.dtd"
   xmlns:inkscape="http://www.inkscape.org/namespaces/inkscape"
   width="143"
   height="32"
   viewBox="0 0 143 32"
   version="1.1"
   id="svg33"
   sodipodi:docname="the-warehouse.svg"
   inkscape:version="0.92.3 (2405546, 2018-03-11)">
  <metadata
     id="metadata39">
    <rdf:RDF>
      <cc:Work
         rdf:about="">
        <dc:format>image/svg+xml</dc:format>
        <dc:type
           rdf:resource="http://purl.org/dc/dcmitype/StillImage" />
        <dc:title>TWL-logo+iconic_white2019</dc:title>
      </cc:Work>
    </rdf:RDF>
  </metadata>
  <defs
     id="defs37" />
  <sodipodi:namedview
     pagecolor="#ffffff"
     bordercolor="#666666"
     borderopacity="1"
     objecttolerance="10"
     gridtolerance="10"
     guidetolerance="10"
     inkscape:pageopacity="0"
     inkscape:pageshadow="2"
     inkscape:window-width="1920"
     inkscape:window-height="1017"
     id="namedview35"
     showgrid="false"
     inkscape:zoom="2.119403"
     inkscape:cx="8.7288732"
     inkscape:cy="12"
     inkscape:window-x="-8"
     inkscape:window-y="-8"
     inkscape:window-maximized="1"
     inkscape:current-layer="svg33" />
  <!-- Generator: Sketch 52.6 (67491) - http://www.bohemiancoding.com/sketch -->
  <title
     id="title2">TWL-logo+iconic_white2019</title>
  <desc
     id="desc4">Created with Sketch.</desc>
  <g
     id="Page-1"
     style="fill:none;fill-rule:evenodd;stroke:none;stroke-width:1"
     transform="matrix(1.0682268,0,0,1.0682268,0,3.2105142)">
    <g
       id="-Noel-footer"
       transform="translate(-584,-436)"
       style="fill:#939393">
      <g
         id="TWL-logo+iconic_white2019"
         transform="translate(584,436)">
        <g
           id="Group-2"
           transform="translate(109.86597)">
          <path
             d="M 5.3234926,0 H 18.738979 c 2.905986,0 5.261754,2.3557677 5.261754,5.2617544 V 18.683509 c 0,2.905987 -2.355768,5.261754 -5.261754,5.261754 H 5.3234926 c -2.9059867,0 -5.26175438,-2.355767 -5.26175438,-5.261754 V 5.2617544 C 0.06173822,2.3557677 2.4175059,0 5.3234926,0 Z M 12.834534,7.4385965 H 9.1863665 L 2.928356,16.505263 h 3.6481676 z m 2.038764,9.0666665 6.260817,-9.0666665 H 15.089382 L 8.8271623,16.505263 Z"
             id="Combined-Shape"
             inkscape:connector-curvature="0" />
        </g>
        <polygon
           id="Path"
           points="25.810785,7.4217544 27.256021,12.974035 27.292503,12.974035 28.667581,7.4217544 31.076775,7.4217544 32.37889,12.992281 32.415372,12.992281 33.932167,7.4217544 36.003204,7.4217544 33.272691,16.491228 30.915414,16.491228 29.505257,10.670877 29.470178,10.670877 28.058618,16.491228 25.810785,16.491228 23.008712,7.4217544 " />
        <path
           d="m 41.502115,12.152983 c -0.999037,0.106666 -2.837152,0.338245 -2.837152,1.66035 0,0.714386 0.427959,1.19579 1.160398,1.19579 0.539141,-0.0081 1.036929,-0.290652 1.320356,-0.749474 0.374639,-0.571228 0.356398,-1.107368 0.356398,-1.750175 z m 0.249759,4.338245 c -0.101411,-0.460577 -0.143379,-0.932257 -0.124879,-1.403509 -0.749278,1.070878 -1.533634,1.588772 -2.890471,1.588772 -1.606597,0 -2.855393,-0.85614 -2.855393,-2.571228 0,-1.338947 0.841885,-2.245614 2.033152,-2.694737 1.035518,-0.392982 2.482157,-0.464561 3.587832,-0.572631 v -0.220351 c 0,-0.392983 0.03648,-0.857544 -0.231518,-1.1971931 C 41.039079,9.117193 40.591476,8.9922807 40.2,8.9922807 c -0.841885,0 -1.571518,0.4280702 -1.571518,1.3207023 l -2.480754,-0.231579 c 0.268,-2.1950882 2.409194,-2.8378952 4.320272,-2.8378952 0.927476,0 2.141194,0.2133333 2.873633,0.8210526 0.927477,0.7494737 0.841885,1.7487719 0.841885,2.8378946 v 4.231579 c -0.01256,0.458969 0.04758,0.917034 0.178199,1.357193 z"
           id="Shape"
           inkscape:connector-curvature="0"
           style="fill-rule:nonzero" />
        <path
           d="M 47.84712,7.4217544 V 9.122807 H 47.8822 C 48.1502,8.16 48.6862,7.1578947 49.828357,7.2491228 l 0.446199,0.035088 V 9.9087719 C 48.275078,9.8021053 48.029529,11.425965 48.029529,13.032982 v 3.458246 H 45.405654 V 7.4217544 Z"
           id="path10"
           inkscape:connector-curvature="0" />
        <path
           d="m 56.494681,10.849123 c -0.05332,-0.9824563 -0.374639,-1.89193 -1.516796,-1.89193 -1.142157,0 -1.606597,0.8561403 -1.694995,1.89193 z m -3.194953,1.553684 -0.01684,0.446316 c 0,1.070877 0.606157,1.945263 1.748314,1.945263 0.804,0 1.606597,-0.58807 1.606597,-1.427369 l 2.43445,0.178246 c 0,0.446316 -1.052356,3.124211 -4.122429,3.124211 -2.713675,0 -4.48023,-1.89193 -4.48023,-4.58807 0,-2.6961408 1.586952,-4.8378952 4.401654,-4.8378952 1.262827,0 2.569152,0.571228 3.319833,1.605614 0.75068,1.034386 0.945717,2.3214032 0.927476,3.5536842 z"
           id="path12"
           inkscape:connector-curvature="0"
           style="fill-rule:nonzero" />
        <path
           d="M 67.7591,16.491228 H 65.135225 V 11.6 c 0,-0.785965 0.0884,-2.2680702 -1.053759,-2.2680702 -0.481277,0 -1.035518,0.231579 -1.248796,0.6778952 C 62.601152,10.492632 62.601152,11.06386 62.601152,11.6 v 4.891228 H 59.977277 V 4.3312281 h 2.623875 v 4.3396491 h 0.03508 C 62.975791,7.76 64.009906,7.2435088 64.992105,7.2435088 c 0.841885,0 1.731476,0.2807017 2.266073,0.9824561 0.534597,0.7017544 0.500922,1.6252632 0.500922,2.4996491 z"
           id="path14"
           inkscape:connector-curvature="0" />
        <path
           d="m 71.383414,11.670175 c 0,1.03579 -0.01824,3.249123 1.481717,3.249123 1.499958,0 1.551874,-1.785263 1.551874,-2.874386 0,-0.712982 -0.03648,-1.570526 -0.280628,-2.2456137 -0.214681,-0.5894737 -0.644042,-0.8224562 -1.250199,-0.8224562 -1.403141,0 -1.498555,1.6617549 -1.498555,2.6961409 m 5.853906,0.357894 c 0,2.58807 -1.696398,4.641404 -4.372189,4.641404 -2.785235,0 -4.302031,-2.105263 -4.302031,-4.731228 0,-2.6259653 1.535036,-4.6947372 4.302031,-4.6947372 2.837152,0 4.372189,2.1052632 4.372189,4.7845612"
           id="path16"
           inkscape:connector-curvature="0"
           style="fill-rule:nonzero" />
        <path
           d="m 83.430785,16.491228 v -1.553684 h -0.03648 c -0.420943,1.142456 -1.355435,1.73193 -2.587393,1.73193 -0.910639,0 -1.696398,-0.196492 -2.212754,-1.017544 -0.500921,-0.785965 -0.446199,-1.642105 -0.446199,-2.517895 V 7.4217544 h 2.623875 v 5.7122806 c 0,0.732632 0.07016,1.428772 0.999036,1.428772 0.576932,0.0042 1.098952,-0.341472 1.320356,-0.874386 0.178199,-0.411228 0.140314,-0.929123 0.140314,-1.392281 V 7.4217544 h 2.622471 v 9.0694736 z"
           id="path18"
           inkscape:connector-curvature="0" />
        <path
           d="M 92.326702,10.134737 C 92.09378,9.2785965 91.416063,8.9207017 90.558744,8.9207017 c -0.534597,0 -1.356838,0.1403509 -1.356838,0.8042106 0,1.6954387 5.444188,-0.2329825 5.444188,3.8568417 0.0024,0.931125 -0.450974,1.80447 -1.213717,2.338246 -0.820838,0.571228 -1.824084,0.749474 -2.820314,0.749474 -1.891435,0 -3.65799,-0.642807 -4.14067,-2.677895 l 2.267476,-0.321404 c 0.178199,0.929123 1.160398,1.214036 1.998073,1.214036 0.500922,0 1.58976,-0.178246 1.58976,-0.856141 0,-0.607719 -0.536,-0.715789 -1.018681,-0.767719 -0.622995,-0.07298 -2.122953,-0.339649 -2.694031,-0.53614 -1.072001,-0.374737 -1.786199,-1.30386 -1.786199,-2.446316 0,-2.2315792 1.946157,-3.0343862 3.874073,-3.0343862 1.784796,0 2.946597,0.6778947 3.569592,2.3733333 z"
           id="path20"
           inkscape:connector-curvature="0" />
        <path
           d="m 101.15527,10.849123 c -0.0547,-0.9824563 -0.37605,-1.89193 -1.518202,-1.89193 -1.142157,0 -1.606597,0.8561403 -1.697801,1.89193 z m -3.196359,1.553684 -0.01964,0.446316 c 0,1.070877 0.606157,1.945263 1.748314,1.945263 0.802595,0 1.606595,-0.58807 1.606595,-1.427369 l 2.42743,0.178246 c 0,0.446316 -1.05235,3.124211 -4.122423,3.124211 -2.713675,0 -4.48023,-1.89193 -4.48023,-4.58807 0,-2.6961408 1.588356,-4.8378952 4.40867,-4.8378952 1.262823,0 2.570553,0.571228 3.319823,1.605614 0.74928,1.034386 0.94713,2.3214032 0.92748,3.5536842 z"
           id="path22"
           inkscape:connector-curvature="0"
           style="fill-rule:nonzero" />
        <path
           d="M 4.4732147,7.4231579 V 8.3592983 H 2.6659686 v 6.2371927 c -0.015038,0.28757 0.032847,0.574959 0.1403141,0.842105 0.09822,0.202106 0.3414311,0.314854 0.7296335,0.338246 0.3100039,-3.85e-4 0.6195495,-0.02384 0.9260733,-0.07018 v 0.934736 c -0.1627644,0 -0.3255288,0 -0.48689,0.01825 -0.1613613,0.01825 -0.3241257,0.01684 -0.4868901,0.01684 -0.7296335,0 -1.2394415,-0.140351 -1.5294241,-0.421052 C 1.6697382,15.974737 1.5294241,15.449825 1.5378429,14.687719 L 1.5490681,8.3635088 H 0 V 7.4231579 H 1.5645026 V 5.1578947 l 1.101466,-0.1192982 v 2.3859649 z"
           id="path24"
           inkscape:connector-curvature="0" />
        <path
           d="m 6.6284398,4.3326316 v 4.7368421 h 0.035079 C 6.875508,8.513722 7.2678143,8.0452034 7.7776126,7.7389474 8.3051105,7.4055616 8.9174116,7.2311295 9.5413613,7.2364912 c 0.5337777,-0.013431 1.0656177,0.069289 1.5701147,0.2442105 0.391702,0.1411378 0.741889,0.3780344 1.018681,0.6891229 0.265123,0.3158364 0.450404,0.6908284 0.54021,1.0933333 0.108645,0.4740555 0.160924,0.9592891 0.155748,1.4456141 v 5.782456 h -1.107078 v -5.605614 c 0.0024,-0.359191 -0.03287,-0.717643 -0.105236,-1.0694736 C 11.553567,9.5065964 11.429303,9.2130665 11.248984,8.954386 11.068507,8.706093 10.826798,8.5088061 10.547414,8.3817544 10.199492,8.2322479 9.8230301,8.1608643 9.4445445,8.1726316 9.0412115,8.1652166 8.6410491,8.2451743 8.2715183,8.4070175 7.9391521,8.5569413 7.642932,8.7766515 7.4029738,9.0512281 7.1553697,9.3370407 6.9648451,9.6676875 6.8417173,10.025263 6.7048999,10.41961 6.6314919,10.833171 6.6242304,11.250526 v 5.235088 H 5.5157487 V 4.3326316 Z"
           id="path26"
           inkscape:connector-curvature="0" />
        <path
           d="m 20.541989,13.503158 c -0.1403,0.632166 -0.465621,1.208224 -0.934492,1.654737 -0.44994,0.413567 -1.073403,0.620819 -1.870387,0.621754 -0.465885,0.0135 -0.926664,-0.100031 -1.332984,-0.328421 -0.360011,-0.210538 -0.672472,-0.493452 -0.917655,-0.830877 -0.245099,-0.34175 -0.424044,-0.726392 -0.527581,-1.134035 -0.106511,-0.397881 -0.161681,-0.807759 -0.164167,-1.219649 H 21.68555 C 21.70863,11.646494 21.65013,11.025977 21.51156,10.421053 21.386387,9.8448583 21.153083,9.2976425 20.824021,8.8084211 20.136755,7.7852666 18.968508,7.1914294 17.73711,7.2392982 c -0.635227,-0.016448 -1.264832,0.1228049 -1.833906,0.4056141 -0.497719,0.2562448 -0.929811,0.6236192 -1.262827,1.0736842 -0.330391,0.4574786 -0.575215,0.97103 -0.722618,1.5157895 -0.155713,0.563644 -0.234534,1.145758 -0.234324,1.730526 -0.003,0.611261 0.07584,1.220171 0.234324,1.810527 0.143719,0.543098 0.388907,1.054079 0.722618,1.505965 0.331461,0.438033 0.764999,0.788327 1.262827,1.02035 0.575785,0.261326 1.203218,0.388957 1.835309,0.373334 1.134674,0 2.012572,-0.276024 2.633696,-0.82807 0.603351,-0.536141 1.024294,-1.291696 1.262828,-2.266667 z M 15.07956,10.16 c 0.135603,-0.3687579 0.331949,-0.7122153 0.580901,-1.0161403 0.243702,-0.2912308 0.543952,-0.5299662 0.882576,-0.7017544 0.371061,-0.1828867 0.780481,-0.2743206 1.194073,-0.2666667 0.408533,-0.00655 0.81269,0.084895 1.178639,0.2666667 0.338476,0.1720179 0.638683,0.4107191 0.882576,0.7017544 0.245503,0.2998512 0.435566,0.6411023 0.561256,1.0077193 0.133081,0.382688 0.205977,0.783719 0.216084,1.188772 h -5.780942 c 0.0449,-0.403455 0.139148,-0.79987 0.280628,-1.180351 z"
           id="path28"
           inkscape:connector-curvature="0"
           style="fill-rule:nonzero" />
      </g>
    </g>
  </g>
</svg>
