<?xml version="1.0" encoding="UTF-8"?>
<svg width="120px" height="20px" viewBox="0 0 120 20" version="1.1" xmlns="http://www.w3.org/2000/svg" xmlns:xlink="http://www.w3.org/1999/xlink">
    <!-- Generator: Sketch 52.6 (67491) - http://www.bohemiancoding.com/sketch -->
    <title>Torpedo7 logo/d</title>
    <desc>Created with Sketch.</desc>
    <defs>
        <polygon id="path-1" points="0.247127273 0.293963636 15.3089455 0.293963636 15.3089455 16 0.247127273 16"></polygon>
    </defs>
    <g id="Page-1" stroke="none" stroke-width="1" fill="none" fill-rule="evenodd">
        <g id="-Noel-footer" transform="translate(-868.000000, -438.000000)">
            <g id="Torpedo7-logo/d" transform="translate(868.000000, 438.000000)">
                <path d="M103.882473,10.0074545 C103.882473,6.02781818 101.049018,3.93436364 95.9061091,3.93436364 C90.7642909,3.93436364 87.9304727,6.02781818 87.9304727,10.0074545 C87.9304727,13.9867273 90.7642909,16.0805455 95.9061091,16.0805455 C101.049018,16.0805455 103.882473,13.9867273 103.882473,10.0074545 M99.7439273,10.0074545 C99.7439273,12.1212727 97.9210182,12.8969091 95.9061091,12.8969091 C93.8915636,12.8969091 92.0690182,12.1212727 92.0690182,10.0074545 C92.0690182,7.89327273 93.8915636,7.118 95.9061091,7.118 C97.9210182,7.118 99.7439273,7.89327273 99.7439273,10.0074545" id="Fill-1" fill="#979797"></path>
                <path d="M87.2737818,15.6242909 L87.2737818,-7.27272727e-05 C87.2737818,-7.27272727e-05 85.6156,1.04756364 84.4188727,1.53229091 C83.8137818,1.77774545 83.1054182,2.02756364 83.1054182,2.02756364 L83.1054182,4.8992 L83.0636,4.8992 C81.7421455,4.39047273 80.7966909,4.10029091 78.8236,4.10029091 C74.6468727,4.10029091 72.2119636,6.73265455 72.2119636,9.98647273 C72.2119636,13.8835636 74.8356,16.0806545 78.8657818,16.0806545 C80.6708727,16.0806545 82.0657818,15.6242909 83.1897818,14.9068364 L83.2316,14.9068364 L83.2316,15.6242909 L87.2737818,15.6242909 Z M83.1076,11.9592 C83.1076,11.9592 82.0723273,12.6312 80.6996,12.8297455 C80.6788727,12.8326545 79.9508727,12.8886545 79.9359636,12.8886545 C77.9006909,12.8886545 76.2243273,11.8933818 76.2243273,10.0279273 C76.2243273,8.16247273 77.9006909,7.16210909 79.9359636,7.16756364 C80.2734182,7.16865455 80.6094182,7.21338182 80.7123273,7.23301818 C82.1846909,7.48538182 83.1076,8.17738182 83.1076,8.17738182 L83.1076,11.9592 Z" id="Fill-3" fill="#979797"></path>
                <path d="M71.5319636,11.0436727 L71.5319636,10.7120364 C71.5319636,6.02767273 68.7905091,3.93421818 63.9210545,3.93421818 C59.1985091,3.93421818 56.3526909,6.00694545 56.3526909,9.98658182 C56.3526909,14.1527636 59.3923273,16.3618545 64.5134182,16.3618545 C67.3479636,16.3618545 69.5028727,15.5567636 70.9796,14.7785818 L69.7028727,12.0069455 C68.4254182,12.6258545 66.5923273,13.2698545 64.6817818,13.2698545 C62.3934182,13.2698545 60.8777818,12.4945818 60.6468727,11.0436727 L71.5319636,11.0436727 Z M67.2374182,8.76367273 L60.6468727,8.76367273 C60.8985091,7.5204 61.8432364,6.46294545 63.9425091,6.46294545 C66.0410545,6.46294545 66.9857818,7.5204 67.2374182,8.76367273 Z" id="Fill-5" fill="#979797"></path>
                <g id="Group-9" transform="translate(40.363636, 3.806109)">
                    <mask id="mask-2" fill="white">
                        <use xlink:href="#path-1"></use>
                    </mask>
                    <g id="Clip-8"></g>
                    <path d="M15.3089455,6.38778182 C15.3089455,2.49105455 12.6853091,0.293963636 8.65512727,0.293963636 C6.85003636,0.293963636 5.65949091,0.607418182 4.33149091,1.45178182 L4.28930909,1.45178182 L4.28930909,0.584145455 L0.247127273,0.584145455 L0.247127273,16.0001455 C0.247127273,16.0001455 1.47985455,15.4546909 2.79585455,15.0285091 C3.44421818,14.8186909 4.41549091,14.6768727 4.41549091,14.6768727 L4.41549091,11.4386909 L4.45730909,11.4386909 C5.57476364,11.9034182 6.72421818,12.2743273 8.69730909,12.2743273 C12.8740364,12.2743273 15.3089455,9.64196364 15.3089455,6.38778182 M11.2965818,6.22196364 C11.2965818,8.08741818 9.62094545,9.08232727 7.58494545,9.08232727 C7.52858182,9.08232727 7.51403636,9.08014545 7.45912727,9.07832727 C5.92785455,8.99796364 4.41367273,8.52487273 4.41367273,8.52487273 L4.41367273,4.3656 C4.41367273,4.3656 5.11767273,3.69869091 6.75876364,3.43505455 C7.01221818,3.39505455 7.37658182,3.3616 7.58494545,3.3616 C9.62094545,3.3616 11.2965818,4.35650909 11.2965818,6.22196364" id="Fill-7" fill="#979797" mask="url(#mask-2)"></path>
                </g>
                <path d="M36.9225818,7.88778182 C37.7462182,7.7256 38.8651273,7.6856 39.5574909,7.81287273 L39.5574909,4.20196364 C39.1167636,4.11941818 38.5287636,4.10050909 38.0462182,4.10050909 C36.0313091,4.10050909 34.2680364,4.6456 33.4073091,5.78596364 L33.3654909,5.78596364 L33.3654909,4.39069091 L29.2604,4.39069091 L29.2604,15.6241455 L33.4284,15.6241455 L33.4284,11.8663273 C33.4284,9.83505455 34.5156727,8.36196364 36.9225818,7.88778182" id="Fill-10" fill="#979797"></path>
                <path d="M28.5197091,10.0074545 C28.5197091,6.02781818 25.6862545,3.93436364 20.5437091,3.93436364 C16.1524364,3.93436364 12.5677091,6.02781818 12.5677091,10.0074545 C12.5677091,13.9867273 15.4011636,16.0805455 20.5437091,16.0805455 C25.6862545,16.0805455 28.5197091,13.9867273 28.5197091,10.0074545 M24.3811636,10.0074545 C24.3811636,12.1212727 22.5586182,12.8969091 20.5437091,12.8969091 C18.5288,12.8969091 16.7058909,12.1212727 16.7058909,10.0074545 C16.7058909,7.89327273 18.5288,7.118 20.5437091,7.118 C22.5586182,7.118 24.3811636,7.89327273 24.3811636,10.0074545" id="Fill-12" fill="#979797"></path>
                <polygon id="Fill-14" fill="#979797" points="0 0.0468727273 1.22654545 3.36323636 5.692 3.36323636 5.692 15.6352364 10.4054545 15.6403273 10.4054545 3.36323636 14.8992727 3.36323636 16.0476364 0.0468727273"></polygon>
                <path d="M119.1552,4.42647273 L103.426109,4.42647273 L105.534109,7.49447273 L112.084655,7.49447273 L112.082836,7.49629091 L116.573745,7.49629091 C117.493745,6.39410909 119.1552,4.42647273 119.1552,4.42647273 M110.122836,9.89701818 C108.771927,11.5984727 106.178109,14.7217455 104.314109,18.7697455 L109.216655,18.7697455 C110.797745,15.0388364 112.731564,12.1402909 116.243564,7.89338182 C116.2632,7.87010909 116.292291,7.8352 116.313382,7.81010909 L111.045382,8.76029091 C111.046109,8.7592 111.046836,8.75847273 111.047564,8.75738182 C110.6832,9.20247273 110.317382,9.65192727 110.122836,9.89701818" id="Fill-16" fill="#979797"></path>
            </g>
        </g>
    </g>
</svg>