<?xml version="1.0" encoding="UTF-8" standalone="no"?>
<svg
   xmlns:dc="http://purl.org/dc/elements/1.1/"
   xmlns:cc="http://creativecommons.org/ns#"
   xmlns:rdf="http://www.w3.org/1999/02/22-rdf-syntax-ns#"
   xmlns:svg="http://www.w3.org/2000/svg"
   xmlns="http://www.w3.org/2000/svg"
   xmlns:sodipodi="http://sodipodi.sourceforge.net/DTD/sodipodi-0.dtd"
   xmlns:inkscape="http://www.inkscape.org/namespaces/inkscape"
   width="92"
   height="32"
   viewBox="0 0 92 31.999999"
   version="1.1"
   id="svg11"
   sodipodi:docname="warehouse-stationary.svg"
   inkscape:version="0.92.3 (2405546, 2018-03-11)">
  <metadata
     id="metadata17">
    <rdf:RDF>
      <cc:Work
         rdf:about="">
        <dc:format>image/svg+xml</dc:format>
        <dc:type
           rdf:resource="http://purl.org/dc/dcmitype/StillImage" />
        <dc:title>WSL Logo</dc:title>
      </cc:Work>
    </rdf:RDF>
  </metadata>
  <defs
     id="defs15" />
  <sodipodi:namedview
     pagecolor="#ffffff"
     bordercolor="#666666"
     borderopacity="1"
     objecttolerance="10"
     gridtolerance="10"
     guidetolerance="10"
     inkscape:pageopacity="0"
     inkscape:pageshadow="2"
     inkscape:window-width="1920"
     inkscape:window-height="1017"
     id="namedview13"
     showgrid="false"
     fit-margin-top="0"
     fit-margin-left="0"
     fit-margin-right="0"
     fit-margin-bottom="0"
     inkscape:zoom="4.115942"
     inkscape:cx="34.5"
     inkscape:cy="11.859823"
     inkscape:window-x="-8"
     inkscape:window-y="-8"
     inkscape:window-maximized="1"
     inkscape:current-layer="svg11" />
  <!-- Generator: Sketch 52.6 (67491) - http://www.bohemiancoding.com/sketch -->
  <title
     id="title2">WSL Logo</title>
  <desc
     id="desc4">Created with Sketch.</desc>
  <g
     id="Page-1"
     style="fill:none;fill-rule:evenodd;stroke:none;stroke-width:1"
     transform="matrix(1.3411715,0,0,1.3411715,0,-1.1692145e-4)">
    <g
       id="-Noel-footer"
       transform="translate(-759,-436)"
       style="fill:#939393">
      <g
         id="WSL-Logo"
         transform="translate(759,436)">
        <path
           d="m 19.916407,13.050338 v -0.02616 c 0,-1.296431 -1.150706,-1.772551 -2.142467,-2.10309 -0.767138,-0.264862 -1.441868,-0.44982 -1.441868,-0.846754 v -0.0263 c 0,-0.2776524 0.251353,-0.4894847 0.740551,-0.4894847 0.423233,0 0.965748,0.1721677 1.534419,0.4496767 0.132503,0.06611 0.22491,0.0927 0.370491,0.0927 0.449677,0 0.806802,-0.3439046 0.806802,-0.7938687 0,-0.3434731 -0.185245,-0.6081916 -0.476119,-0.7536288 -0.68824,-0.3440479 -1.45509,-0.5423712 -2.195785,-0.5423712 -1.428503,0 -2.592431,0.8068024 -2.592431,2.2486707 v 0.0263 c 0,1.375617 1.12412,1.838372 2.116168,2.129533 0.780503,0.238132 1.468311,0.383569 1.468311,0.820312 v 0.0263 c 0,0.317461 -0.264575,0.529006 -0.846611,0.529006 -0.568527,0 -1.243401,-0.211545 -1.917988,-0.634922 -0.105629,-0.06625 -0.251353,-0.105916 -0.396646,-0.105916 -0.449677,0 -0.793725,0.344048 -0.793725,0.793724 0,0.317318 0.172024,0.555737 0.383713,0.687809 0.859688,0.555305 1.79885,0.806802 2.671904,0.806802 1.534419,0 2.711281,-0.714251 2.711281,-2.288335 z M 13.925605,9.3733078 c 0.02659,-0.092407 0.06611,-0.2776527 0.06611,-0.4097246 0,-0.5028503 -0.383569,-0.9260838 -0.939162,-0.9260838 -0.528719,0 -0.833102,0.3437605 -0.965461,0.7672814 L 10.976192,12.428925 9.8516407,8.831224 C 9.7062036,8.3548168 9.336,8.0244216 8.8200719,8.0244216 H 8.7009341 c -0.5157844,0 -0.885988,0.3303952 -1.0318563,0.8068024 L 6.5583233,12.415559 5.4737245,8.8178587 C 5.3281437,8.3548168 4.9976048,8.0374994 4.4948982,8.0374994 c -0.5951138,0 -0.9654611,0.4496767 -0.9654611,0.9127186 0,0.1720239 0.052886,0.3702036 0.092551,0.489485 l 1.7327425,4.999473 c 0.2114012,0.621988 0.6215569,0.899497 1.1107545,0.899497 h 0.066395 c 0.4893414,0 0.8992096,-0.277509 1.0845988,-0.859689 l 1.1374851,-3.571257 1.1241197,3.571257 c 0.1853893,0.58218 0.5954013,0.859689 1.0847423,0.859689 h 0.06611 c 0.489341,0 0.899641,-0.277509 1.111042,-0.899497 z M 11.930299,8.6227545e-5 c 6.588503,0 11.929869,5.340934172455 11.929869,11.929580772455 0,6.588934 -5.341366,11.930156 -11.929869,11.930156 C 5.3413653,23.859823 0,18.518601 0,11.929667 0,5.3410204 5.3413653,8.6227545e-5 11.930299,8.6227545e-5 Z M 9.1157892,17.999095 c 0,-0.350372 -0.2841197,-0.633917 -0.6340599,-0.633917 -0.3500838,0 -0.633485,0.283545 -0.633485,0.633917 0,0.350083 0.2834012,0.633916 0.633485,0.633916 0.3499402,0 0.6340599,-0.283833 0.6340599,-0.633916 z m 2.2989848,0 c 0,-0.350372 -0.284408,-0.633917 -0.634348,-0.633917 -0.34994,0 -0.633628,0.283545 -0.633628,0.633917 0,0.350083 0.283688,0.633916 0.633628,0.633916 0.34994,0 0.634348,-0.283833 0.634348,-0.633916 z m 1.664637,-0.633917 c -0.349797,0 -0.633629,0.283545 -0.633629,0.633917 0,0.350083 0.283832,0.633916 0.633629,0.633916 0.350227,0 0.63406,-0.283833 0.63406,-0.633916 0,-0.350372 -0.283833,-0.633917 -0.63406,-0.633917 z m 2.932771,0.633917 c 0,-0.350372 -0.283976,-0.633917 -0.63406,-0.633917 -0.349509,0 -0.633629,0.283545 -0.633629,0.633917 0,0.350083 0.28412,0.633916 0.633629,0.633916 0.350084,0 0.63406,-0.283833 0.63406,-0.633916 z"
           id="Combined-Shape"
           inkscape:connector-curvature="0" />
        <path
           d="m 64.917672,13.512287 c -0.116839,0 -0.274347,0.04786 -0.359569,0.27521 l -1.209772,3.077461 -1.36139,-3.07085 c -0.07832,-0.189413 -0.201197,-0.281821 -0.375377,-0.281821 -0.213126,0 -0.379832,0.163402 -0.379832,0.37236 0,0.05993 0.01437,0.123736 0.04599,0.196886 l 1.702132,3.60891 -0.01825,0.03578 c -0.223042,0.502563 -0.429557,0.68939 -0.761533,0.68939 -0.202347,0 -0.315737,-0.03248 -0.422946,-0.06783 -0.05001,-0.01696 -0.106204,-0.03578 -0.173174,-0.03578 -0.183233,0 -0.332838,0.149605 -0.332838,0.332982 0,0.14788 0.08307,0.264144 0.238132,0.328671 0.184814,0.06381 0.397365,0.123161 0.69873,0.123161 0.662946,0 1.079856,-0.348646 1.439425,-1.203449 l 1.607282,-3.835257 c 0.01681,-0.05001 0.03507,-0.114395 0.03507,-0.173461 0,-0.205078 -0.166994,-0.37236 -0.372072,-0.37236 z m -4.339114,-0.01581 c -0.49782,0 -1.02079,0.351377 -1.344431,0.880958 v -0.484886 c 0,-0.212982 -0.16685,-0.380264 -0.38012,-0.380264 -0.205221,0 -0.372359,0.170731 -0.372359,0.380264 v 3.568383 c 0,0.212982 0.167138,0.380264 0.380407,0.380264 0.208958,0 0.372072,-0.167282 0.372072,-0.380264 V 16.06218 c 0,-1.026683 0.517653,-1.701701 1.386539,-1.806036 0.197461,-0.02961 0.330108,-0.18194 0.330108,-0.379401 0,-0.220312 -0.156503,-0.380264 -0.372216,-0.380264 z m -6.12776,1.883641 c 0.10376,-0.744719 0.610922,-1.257916 1.255616,-1.257916 0.799186,0 1.157749,0.635928 1.233054,1.257916 z m 1.271712,-1.915545 c -1.144527,0 -2.041293,0.969916 -2.041293,2.208 v 0.0161 c 0,1.258778 0.911712,2.208287 2.121054,2.208287 0.644263,0 1.13691,-0.197461 1.596071,-0.637653 0.07674,-0.0674 0.118994,-0.156646 0.118994,-0.251353 0,-0.183665 -0.15291,-0.332982 -0.340167,-0.332982 -0.10333,0 -0.174898,0.05016 -0.222611,0.09054 -0.33988,0.312575 -0.700311,0.457868 -1.136335,0.457868 -0.720863,0 -1.261797,-0.498682 -1.367425,-1.249724 h 2.893077 c 0.196599,0 0.35612,-0.159952 0.35612,-0.356551 0,-1.069653 -0.678898,-2.152527 -1.977485,-2.152527 z m -4.434539,0 c -0.558179,0 -1.006706,0.216862 -1.336096,0.645269 v -0.217293 c 0,-0.21327 -0.166994,-0.380264 -0.379976,-0.380264 -0.205365,0 -0.372646,0.170731 -0.372646,0.380264 v 3.568383 c 0,0.213126 0.167281,0.380264 0.380263,0.380264 0.212551,0 0.372359,-0.163833 0.372359,-0.380264 v -2.082251 c 0,-0.716695 0.477557,-1.216958 1.161485,-1.216958 0.667402,0 1.065917,0.437173 1.065917,1.169245 v 2.129964 c 0,0.213126 0.167425,0.380264 0.38055,0.380264 0.208671,0 0.372072,-0.167138 0.372072,-0.380264 v -2.281006 c 0,-1.041916 -0.645413,-1.715353 -1.643928,-1.715353 z m -3.662515,2.232 c 0,0.861557 -0.61897,1.510994 -1.439712,1.510994 -0.811258,0 -1.447042,-0.670707 -1.447042,-1.526802 v -0.01595 c 0,-0.866012 0.615521,-1.518898 1.431377,-1.518898 0.816431,0 1.455377,0.674156 1.455377,1.534851 z m -1.439712,-2.232 c -1.242539,0 -2.215905,0.973509 -2.215905,2.216192 v 0.01581 c 0,1.233629 0.966611,2.200383 2.20024,2.200383 1.247281,0 2.223665,-0.973509 2.223665,-2.216191 v -0.01595 c 0,-1.233772 -0.969629,-2.200239 -2.208,-2.200239 z M 42.721265,11.93892 c -0.247905,0 -0.428264,0.166419 -0.428264,0.396359 v 0.102899 c 0,0.225916 0.183952,0.396359 0.428264,0.396359 0.248191,0 0.436167,-0.170443 0.436167,-0.396359 v -0.102899 c 0,-0.22994 -0.183521,-0.396359 -0.436167,-0.396359 z m 0,1.573365 c -0.205366,0 -0.37236,0.170731 -0.37236,0.380264 v 3.568383 c 0,0.213126 0.167282,0.380264 0.380264,0.380264 0.212263,0 0.372072,-0.163833 0.372072,-0.380264 v -3.568383 c 0,-0.21327 -0.166994,-0.380264 -0.379976,-0.380264 z m -1.518324,0.720719 c 0.192288,0 0.348934,-0.152479 0.348934,-0.340455 0,-0.184383 -0.159808,-0.340455 -0.348934,-0.340455 h -0.994203 v -0.89921 c 0,-0.20594 -0.173892,-0.380263 -0.380551,-0.380263 -0.208527,0 -0.37236,0.166994 -0.37236,0.380263 v 0.89921 h -0.263425 c -0.18467,0 -0.340167,0.156072 -0.340167,0.340455 0,0.181653 0.159377,0.340455 0.340167,0.340455 h 0.263425 v 2.409054 c 0,0.793724 0.437174,1.230611 1.230755,1.230611 0.235832,0 0.436311,-0.03679 0.629317,-0.115689 0.135521,-0.05231 0.220024,-0.168719 0.220024,-0.304096 0,-0.183521 -0.14903,-0.332551 -0.332982,-0.332551 -0.024,0 -0.04944,0.0066 -0.0845,0.01552 -0.06065,0.0161 -0.152191,0.03981 -0.288862,0.03981 -0.423377,0 -0.620838,-0.194443 -0.620838,-0.612791 v -2.329868 z m -3.64685,1.987976 c 0,0.594252 -0.560479,1.042347 -1.304192,1.042347 -0.463185,0 -0.962586,-0.234251 -0.962586,-0.748167 v -0.0161 c 0,-0.488192 0.422227,-0.779641 1.12958,-0.779641 0.382994,0 0.755354,0.05159 1.137198,0.157509 z m -1.097245,-2.724503 c -0.493078,0 -0.915881,0.08752 -1.369438,0.28297 -0.101604,0.04096 -0.21097,0.158228 -0.21097,0.319761 0,0.180359 0.155928,0.332982 0.340743,0.332982 0.04196,0 0.09068,-0.01035 0.139832,-0.03004 0.337006,-0.151186 0.676168,-0.224479 1.03588,-0.224479 0.526276,0 1.153437,0.182227 1.153437,1.050107 v 0.05073 c -0.306395,-0.08235 -0.669556,-0.153054 -1.192814,-0.153054 -1.12685,0 -1.826587,0.535473 -1.826587,1.397605 v 0.0161 c 0,0.885988 0.806946,1.349604 1.603976,1.349604 0.691402,0 1.139785,-0.292023 1.415425,-0.585916 v 0.18194 c 0,0.202923 0.156647,0.356408 0.365031,0.356408 0.206946,0 0.36388,-0.159953 0.36388,-0.372503 V 15.21988 c 0,-0.536048 -0.148455,-0.956838 -0.441485,-1.250012 -0.314731,-0.314012 -0.777917,-0.473389 -1.37691,-0.473389 z m -2.710132,0.736527 c 0.192287,0 0.348646,-0.152479 0.348646,-0.340455 0,-0.184383 -0.15952,-0.340455 -0.348646,-0.340455 h -0.994491 v -0.89921 c 0,-0.20594 -0.17418,-0.380263 -0.380264,-0.380263 -0.208814,0 -0.372359,0.166994 -0.372359,0.380263 v 0.89921 h -0.263569 c -0.184527,0 -0.340311,0.156072 -0.340311,0.340455 0,0.181653 0.15909,0.340455 0.340311,0.340455 H 32.0016 v 2.409054 c 0,0.793724 0.436886,1.230611 1.230611,1.230611 0.236263,0 0.436455,-0.03679 0.629461,-0.115689 0.135521,-0.05231 0.220024,-0.168719 0.220024,-0.304096 0,-0.183521 -0.149318,-0.332551 -0.332982,-0.332551 -0.02429,0 -0.04958,0.0066 -0.0845,0.01552 -0.0605,0.0161 -0.152192,0.03981 -0.288863,0.03981 -0.423664,0 -0.621125,-0.194443 -0.621125,-0.612791 v -2.329868 z m -4.088192,1.086036 -0.01581,-0.0046 c -0.509747,-0.155063 -0.99104,-0.30165 -0.99104,-0.634919 v -0.0161 c 0,-0.314299 0.290874,-0.525413 0.724311,-0.525413 0.323353,0 0.682347,0.106778 1.041342,0.310275 0.02917,0.01466 0.08968,0.03923 0.166275,0.03923 0.187832,0 0.340599,-0.149317 0.340599,-0.332695 0,-0.127473 -0.06913,-0.24503 -0.187689,-0.316167 -0.421653,-0.227785 -0.911856,-0.357988 -1.344718,-0.357988 -0.865006,0 -1.469174,0.512335 -1.469174,1.246275 v 0.01581 c 0,0.82764 0.814994,1.059305 1.410395,1.228311 0.551569,0.15406 0.973653,0.299928 0.973653,0.655185 v 0.01581 c 0,0.347784 -0.313437,0.581317 -0.779785,0.581317 -0.423377,0 -0.848479,-0.142994 -1.259497,-0.421652 -0.05059,-0.04067 -0.120143,-0.06295 -0.194874,-0.06295 -0.187832,0 -0.340599,0.149318 -0.340599,0.332264 0,0.132503 0.07286,0.231665 0.140551,0.280096 0.464623,0.331832 1.070946,0.529724 1.622659,0.529724 0.916743,0 1.532551,-0.523257 1.532551,-1.302323 v -0.01566 c 0,-0.832814 -0.824048,-1.080143 -1.36915,-1.243832 z M 65.235564,7.7985629 c 0.103473,-0.7445749 0.610635,-1.2579162 1.255617,-1.2579162 0.798754,0 1.157748,0.6357844 1.233054,1.2579162 z m 3.249198,0.236982 c 0,-1.0693653 -0.679186,-2.1523832 -1.977342,-2.1523832 -1.14467,0 -2.041149,0.9700599 -2.041149,2.2082874 v 0.015808 c 0,1.2586347 0.911712,2.2082879 2.120479,2.2082879 0.644407,0 1.137341,-0.197461 1.596072,-0.6375095 0.07674,-0.067401 0.119281,-0.1567904 0.119281,-0.2516407 0,-0.1833772 -0.15291,-0.3325509 -0.340168,-0.3325509 -0.103042,0 -0.175185,0.050156 -0.222898,0.090108 -0.339305,0.3127186 -0.700311,0.4581557 -1.136623,0.4581557 -0.720575,0 -1.261509,-0.4986826 -1.36685,-1.2498683 h 2.89279 c 0.196599,0 0.356408,-0.1599521 0.356408,-0.3566944 z m -7.755881,1.7343234 c 0.464048,0.3315447 1.070659,0.5295807 1.622372,0.5295807 0.916742,0 1.532407,-0.52297 1.532407,-1.3020358 v -0.016096 c 0,-0.8326707 -0.823761,-1.08 -1.36915,-1.2434012 l -0.01566,-0.0046 C 61.989097,7.5779641 61.507516,7.4313772 61.507516,7.0979641 v -0.016096 c 0,-0.314012 0.291593,-0.5252695 0.724455,-0.5252695 0.323641,0 0.682348,0.1066347 1.041342,0.3101317 0.02932,0.014659 0.09011,0.039234 0.166419,0.039234 0.187832,0 0.340742,-0.1493174 0.340742,-0.3322635 0,-0.1277605 -0.06927,-0.2451737 -0.18812,-0.3165988 -0.421509,-0.2273533 -0.911568,-0.3578443 -1.344718,-0.3578443 -0.864862,0 -1.46903,0.5123353 -1.46903,1.2464192 v 0.015808 c 0,0.8277845 0.814994,1.059018 1.410539,1.2281677 0.551856,0.1539162 0.973796,0.3002156 0.973796,0.6554731 v 0.015665 c 0,0.3476407 -0.313293,0.5813174 -0.780215,0.5813174 -0.423234,0 -0.848479,-0.142994 -1.258922,-0.4219401 -0.05102,-0.04024 -0.120432,-0.062659 -0.195018,-0.062659 -0.188264,0 -0.340887,0.1490299 -0.340887,0.3324072 0,0.1320718 0.07286,0.2312335 0.140982,0.2799521 z M 59.101768,9.6590659 v 0.2203113 c 0,0.2132698 0.163545,0.3802638 0.372071,0.3802638 0.208671,0 0.37236,-0.166994 0.37236,-0.3802638 V 6.3114251 c 0,-0.2135568 -0.163689,-0.3805509 -0.37236,-0.3805509 -0.212119,0 -0.372071,0.1636887 -0.372071,0.3805509 v 2.0821078 c 0,0.7164072 -0.477701,1.2168144 -1.161773,1.2168144 -0.66697,0 -1.065916,-0.4370299 -1.065916,-1.1692455 V 6.3114251 c 0,-0.2098203 -0.170299,-0.3805509 -0.38012,-0.3805509 -0.212263,0 -0.372359,0.1636887 -0.372359,0.3805509 v 2.2807186 c 0,1.0417725 0.645269,1.7152093 1.643784,1.7152093 0.560336,0 0.999234,-0.212263 1.336384,-0.6482871 z M 54.611181,8.1151617 c 0,0.8615569 -0.618683,1.5108503 -1.439569,1.5108503 -0.811545,0 -1.447042,-0.6705629 -1.447042,-1.5266587 v -0.015808 c 0,-0.8662994 0.615234,-1.5191856 1.431521,-1.5191856 0.816,0 1.45509,0.6741557 1.45509,1.534994 z m 0.768718,-0.015808 v -0.015808 c 0,-1.2336287 -0.969772,-2.2003832 -2.208287,-2.2003832 -1.242395,0 -2.215617,0.9737964 -2.215617,2.2161916 v 0.015808 c 0,1.2339161 0.966036,2.2003829 2.200096,2.2003829 1.247282,0 2.223808,-0.9736524 2.223808,-2.2161913 z M 49.45348,9.8793772 c 0,0.2131258 0.167282,0.3802638 0.380839,0.3802638 0.208526,0 0.372359,-0.167138 0.372359,-0.3802638 V 7.5986587 c 0,-1.0420599 -0.64527,-1.715497 -1.644216,-1.715497 -0.55861,0 -1.007137,0.2168622 -1.335952,0.6452694 V 4.618491 c 0,-0.2095329 -0.170587,-0.3802635 -0.380694,-0.3802635 -0.205078,0 -0.37236,0.1707306 -0.37236,0.3802635 v 5.2608862 c 0,0.2131258 0.167282,0.3802638 0.380551,0.3802638 0.21212,0 0.372503,-0.163402 0.372503,-0.3802638 V 7.7975569 c 0,-0.7166946 0.477413,-1.2173892 1.161198,-1.2173892 0.667545,0 1.065772,0.437461 1.065772,1.1693892 z M 43.698941,6.5406467 c 0.798324,0 1.157318,0.6357844 1.23291,1.2579162 h -2.48867 c 0.102898,-0.7445749 0.610635,-1.2579162 1.25576,-1.2579162 z m 1.810491,2.8857485 c 0,-0.1833772 -0.152766,-0.3325509 -0.340742,-0.3325509 -0.102755,0 -0.174611,0.050156 -0.222323,0.090108 -0.339306,0.3127186 -0.700312,0.4581557 -1.136336,0.4581557 -0.720718,0 -1.261653,-0.4986826 -1.36685,-1.2498683 h 2.892215 c 0.196887,0 0.357126,-0.1599521 0.357126,-0.3566946 0,-1.0693653 -0.679617,-2.1523832 -1.97806,-2.1523832 -1.144383,0 -2.041006,0.9700599 -2.041006,2.2082874 v 0.015808 c 0,1.2586347 0.911857,2.2082877 2.120767,2.2082877 0.644263,0 1.137054,-0.197461 1.595928,-0.6375093 0.07674,-0.067401 0.119281,-0.1567904 0.119281,-0.2516405 z m -6.086227,0.8332458 c 0.209245,0 0.372503,-0.167138 0.372503,-0.3802638 V 8.4806228 c 0,-1.026539 0.517653,-1.7015569 1.386251,-1.8056048 0.197605,-0.030036 0.329964,-0.1822276 0.329964,-0.3796887 0,-0.2204551 -0.156646,-0.3802634 -0.372072,-0.3802634 -0.497964,0 -1.020503,0.3513772 -1.344143,0.8809581 V 6.3114251 c 0,-0.2134131 -0.167138,-0.3805509 -0.38012,-0.3805509 -0.20594,0 -0.372647,0.1707306 -0.372647,0.3805509 v 3.5679521 c 0,0.2131258 0.166707,0.3802638 0.380264,0.3802638 z M 35.051037,8.9177964 c 0,-0.4883353 0.422228,-0.7797844 1.129868,-0.7797844 0.382707,0 0.755066,0.051449 1.137485,0.1576527 v 0.3440479 c 0,0.5941078 -0.560766,1.0422036 -1.304766,1.0422036 -0.463329,0 -0.962587,-0.2339641 -0.962587,-0.7481677 z m 0.843593,1.3895566 c 0.691257,0 1.139784,-0.291736 1.415569,-0.5859159 v 0.1819402 c 0,0.2032097 0.156646,0.3562637 0.364886,0.3562637 0.207808,0 0.36388,-0.159952 0.36388,-0.3720721 V 7.6384671 c 0,-0.5361917 -0.148455,-0.9566946 -0.441629,-1.250012 -0.314299,-0.314012 -0.777772,-0.4733892 -1.377053,-0.4733892 -0.492647,0 -0.91545,0.087665 -1.36915,0.2832574 -0.101317,0.040527 -0.211258,0.1579402 -0.211258,0.3194731 0,0.1806467 0.156216,0.3328383 0.340887,0.3328383 0.04182,0 0.09068,-0.010347 0.139976,-0.029892 0.337293,-0.1508982 0.676311,-0.224479 1.036167,-0.224479 0.526276,0 1.153294,0.1822275 1.153294,1.0501078 v 0.050587 c -0.306683,-0.082204 -0.669557,-0.1530539 -1.193246,-0.1530539 -1.126706,0 -1.826443,0.5357605 -1.826443,1.3978922 v 0.015808 c 0,0.8861317 0.80709,1.3497482 1.60412,1.3497482 z M 29.072881,9.9581317 c 0.072,0.2068023 0.220743,0.3252213 0.408144,0.3252213 h 0.0161 c 0.191425,0 0.337581,-0.119281 0.400383,-0.3252213 l 0.96618,-2.8023952 0.957988,2.7999521 c 0.06323,0.2083834 0.209676,0.3276644 0.401102,0.3276644 h 0.024 c 0.179784,0 0.329245,-0.121437 0.399808,-0.3245027 l 1.256192,-3.4824431 0.005,-0.014659 c 0.01725,-0.050156 0.03837,-0.1128144 0.03837,-0.1743234 0,-0.196455 -0.166994,-0.3565509 -0.372359,-0.3565509 -0.174755,0 -0.303378,0.1021797 -0.360863,0.2862755 L 32.231253,9.117988 31.264498,6.225485 C 31.202127,6.0380838 31.061863,5.9308742 30.879923,5.9308742 h -0.0319 c -0.174467,0 -0.305245,0.1046228 -0.368766,0.2943234 L 29.505317,9.117988 28.539137,6.2342515 C 28.478057,6.0416767 28.34067,5.9308742 28.162035,5.9308742 c -0.209677,0 -0.380407,0.1636887 -0.380407,0.3644551 0,0.061509 0.02141,0.1241677 0.03837,0.1743234 z"
           id="Fill-3"
           inkscape:connector-curvature="0" />
      </g>
    </g>
  </g>
</svg>
