<?xml version="1.0" encoding="utf-8"?>
<!-- Generator: Adobe Illustrator 18.0.0, SVG Export Plug-In . SVG Version: 6.00 Build 0)  -->
<!DOCTYPE svg PUBLIC "-//W3C//DTD SVG 1.1//EN" "http://www.w3.org/Graphics/SVG/1.1/DTD/svg11.dtd">
<svg version="1.1" id="HORIZONTAL" xmlns="http://www.w3.org/2000/svg" xmlns:xlink="http://www.w3.org/1999/xlink" x="0px" y="0px"
	 width="215px" height="40px" viewBox="0 0 215 40" enable-background="new 0 0 215 40" xml:space="preserve">
<g>
	<path fill="#FFFFFF" d="M68.9,11.7c-4.4,0-7.9,3.6-7.9,8.3c0,4.7,3.5,8.2,7.9,8.2c4.4,0,7.9-3.5,7.9-8.2
		C76.8,15.3,73.3,11.7,68.9,11.7z M68.9,24.5c-2.1,0-3.9-1.8-3.9-4.5c0-2.7,1.7-4.6,3.9-4.6c2.1,0,3.9,1.9,3.9,4.6
		C72.8,22.7,71,24.5,68.9,24.5z M93.9,17.8L93.9,17.8c-0.9-3.9-4-6.1-7.6-6.1c-4.5,0-8.1,3.7-8.1,8.3c0,4.6,3.6,8.2,8.1,8.2
		c3.5,0,6.2-1.8,7.3-4.5c0-0.1,0.1-0.2,0.1-0.3c0-0.3-0.3-0.6-0.6-0.6h-3.1c-0.2,0-0.4,0.1-0.5,0.3c-0.7,1.1-2,1.6-3.2,1.6
		c-1.4,0-2.6-0.6-3.4-1.7l10.6-4.5C93.8,18.4,93.9,18.1,93.9,17.8z M82,19.8c0.1-2.7,2-4.5,4.3-4.5c1.3,0,2.4,0.5,3.1,1.4L82,19.8z
		 M101.5,27.9c-4.2,0.2-6.5-2.5-6.5-6.6V6.8c0-0.3,0.3-0.6,0.6-0.6h2.8c0.3,0,0.6,0.3,0.6,0.6v14.5c0,2,0.8,2.8,2.4,2.9
		c0.3,0,0.6,0.3,0.6,0.6v2.5C102.1,27.6,101.8,27.9,101.5,27.9z M175.5,18.8v8.5c0,0.3-0.3,0.6-0.6,0.6h-2.8c-0.3,0-0.6-0.3-0.6-0.6
		v-8.6c0-0.9-0.3-3-3-3c-1.8,0-3.1,1.2-3.1,3v8.6c0,0.3-0.3,0.6-0.6,0.6H162c-0.3,0-0.6-0.3-0.6-0.6v-8.6c0-0.9-0.3-3-2.9-3
		c-1.8,0-3.1,1.2-3.1,3v8.6c0,0.3-0.3,0.6-0.6,0.6H152c-0.3,0-0.6-0.3-0.6-0.6v-8.5c0-4,2.8-7,7.1-7c2.1,0,3.9,0.9,5,2.2
		c1.2-1.4,3-2.2,5-2.2C172.9,11.7,175.5,14.6,175.5,18.8z M179.2,6.1c-1.1,0-2,0.9-2,2v1.6c0,0.3,0.3,0.6,0.6,0.6h2.8
		c0.3,0,0.6-0.3,0.6-0.6V8.2C181.2,7,180.3,6.1,179.2,6.1z M181.2,12.8c0-0.3-0.3-0.6-0.6-0.6h-2.8c-0.3,0-0.6,0.3-0.6,0.6v14.5
		c0,0.3,0.3,0.6,0.6,0.6h2.8c0.3,0,0.6-0.3,0.6-0.6V12.8z M214.7,20v7.1c0,5.2-3.1,8.5-8.2,8.5c-3.5,0-6.5-1.8-7.4-4.7v0
		c0-0.1,0-0.1,0-0.2c0-0.3,0.3-0.6,0.6-0.6h3.2c0.2,0,0.4,0.1,0.5,0.3l0,0c0.6,1,2.1,1.4,3.1,1.4c2.8,0,4.1-1.9,4.1-4.7v-0.7
		c-1.2,1.2-2.8,1.8-4.6,1.8c-4.2,0-7.5-3.7-7.5-8.2c0-4.6,3.3-8.3,8.1-8.3C211.4,11.7,214.7,15.5,214.7,20z M210.7,20
		c0-2.5-1.8-4.5-4-4.5c-2.2,0-4,1.9-4,4.5c0,2.5,1.8,4.4,4,4.4C208.9,24.5,210.7,22.5,210.7,20z M132.9,17.8L132.9,17.8
		c-0.9-3.9-4-6.1-7.6-6.1c-4.5,0-8.1,3.7-8.1,8.3c0,4.6,3.6,8.2,8.1,8.2c3.5,0,6.2-1.8,7.3-4.5c0-0.1,0.1-0.2,0.1-0.3
		c0-0.3-0.3-0.6-0.6-0.6h-3.1c-0.2,0-0.4,0.1-0.5,0.3c-0.7,1.1-2,1.6-3.2,1.6c-1.4,0-2.6-0.6-3.4-1.7l10.6-4.5
		C132.8,18.4,133,18.1,132.9,17.8z M121,19.8c0.1-2.7,2-4.5,4.3-4.5c1.3,0,2.4,0.5,3.1,1.4L121,19.8z M149.9,17.8L149.9,17.8
		c-0.9-3.9-4-6.1-7.6-6.1c-4.5,0-8.1,3.7-8.1,8.3c0,4.6,3.6,8.2,8.1,8.2c3.5,0,6.2-1.8,7.3-4.5c0-0.1,0.1-0.2,0.1-0.3
		c0-0.3-0.3-0.6-0.6-0.6H146c-0.2,0-0.4,0.1-0.5,0.3c-0.7,1.1-2,1.6-3.2,1.6c-1.4,0-2.6-0.6-3.4-1.7l10.6-4.5
		C149.9,18.4,150,18.1,149.9,17.8z M138,19.8c0.1-2.7,2-4.5,4.3-4.5c1.3,0,2.4,0.5,3.1,1.4L138,19.8z M196.9,18.8v8.5
		c0,0.3-0.3,0.6-0.6,0.6h-2.8c-0.3,0-0.6-0.3-0.6-0.6v-8.6c0-0.9-0.3-3-3-3c-1.8,0-3.1,1.2-3.1,3v8.6c0,0.3-0.3,0.6-0.6,0.6h-2.8
		c-0.3,0-0.6-0.3-0.6-0.6v-8.5c0-4,2.8-7,7.1-7C194.3,11.7,196.9,14.6,196.9,18.8z M59.3,18.8v8.5c0,0.3-0.3,0.6-0.6,0.6h-2.8
		c-0.3,0-0.6-0.3-0.6-0.6v-8.6c0-0.9-0.3-3-3-3c-1.8,0-3,1.2-3,3v8.6c0,0.3-0.3,0.6-0.6,0.6h-2.8c-0.3,0-0.6-0.3-0.6-0.6v-8.5
		c0-4,2.8-7.1,7.1-7.1C56.7,11.8,59.3,14.7,59.3,18.8z M115.9,28c-4.2,0.2-6.5-2.5-6.5-6.6V6.8c0-0.3,0.3-0.6,0.6-0.6h2.8
		c0.3,0,0.6,0.3,0.6,0.6v14.6c0,2,0.8,2.9,2.4,2.9c0.3,0,0.6,0.3,0.6,0.6v2.5C116.5,27.7,116.3,28,115.9,28z"/>
	<path fill="#FFDD00" d="M19.4,28c-0.5,0-0.8-0.4-0.8-0.8v-7.1c0-1.9-1.3-2.2-2.1-2.2c-1.3,0-2.2,0.9-2.2,2.2v7.1
		c0,0.5-0.4,0.8-0.8,0.8H11c-0.5,0-0.8-0.4-0.8-0.8v-7c0-3.6,2.6-6.2,6.2-6.2c3.7,0,6.1,2.4,6.1,6.2v7c0,0.5-0.4,0.8-0.8,0.8H19.4z
		 M36.1,32.9c0.3-0.3,0.3-0.9-0.1-1.2c-0.2-0.1-0.3-0.2-0.5-0.2h-3c-0.2,0-0.4,0.1-0.6,0.2l0,0c-2.9,2.7-6.8,4.2-10.9,4.2
		C12.2,35.9,5,28.7,5,19.9C5,11,12.2,3.8,21.1,3.8c4.3,0,8.2,1.5,10.9,4.4c2.7,2.8,4.1,6.7,4,10.9c-0.1,2.5-1.5,5.1-3.9,5.1h-2.3
		c-0.8,0-1.7-0.2-1.7-2.2V9.7c0-0.5-0.4-0.8-0.8-0.8h-2.4c-0.5,0-0.9,0.4-0.9,0.8V22c0,3.8,2.1,6,5.8,6h2.3c4.7,0,7.6-4.5,7.7-8.9
		c0.1-5.3-1.7-10.2-5.2-13.7C31.2,1.9,26.4,0,21.1,0C10.1,0,1.2,8.9,1.2,19.9c0,11,8.9,19.9,19.9,19.9
		C26.9,39.7,32.4,37.2,36.1,32.9L36.1,32.9z"/>
</g>
</svg>
